<svg
        width="283"
        height="283"
        viewBox="0 0 400 400"
        fill="none"
        xmlns="http://www.w3.org/2000/svg"
        className="relative mx-auto h-12 w-auto dark:scale-110 dark:rounded-full dark:border dark:border-stone-400"
      >
        <path
          d="M250 100.034C250.004 91.266 247.702 82.651 243.326 75.053C238.95 67.456 232.652 61.142 225.066 56.747C217.479 52.351 208.87 50.027 200.102 50.009C191.334 49.99 182.716 52.277 175.111 56.641C167.506 61.005 161.182 67.292 156.774 74.871C152.365 82.45 150.027 91.055 149.994 99.823C149.961 108.591 152.234 117.213 156.585 124.826C160.936 132.438 167.213 138.772 174.784 143.193C172.995 165.913 159.096 172.101 116.187 181.024C102.311 183.899 88.1149 186.844 75.0049 191.907V93.307C84.5369 87.803 91.9879 79.308 96.1999 69.138C100.412 58.969 101.151 47.694 98.3019 37.061C95.4539 26.429 89.1759 17.0339 80.4429 10.333C71.7099 3.6321 61.0109 0 50.0029 0C38.9959 0 28.2959 3.6321 19.5629 10.333C10.8299 17.0339 4.55293 26.429 1.70393 37.061C-1.14507 47.694 -0.406085 58.969 3.80592 69.138C8.01891 79.308 15.4689 87.803 25.0019 93.307V256.77C15.4829 262.267 8.0409 270.746 3.8259 280.897C-0.389096 291.047 -1.14207 302.304 1.68293 312.926C4.50893 323.548 10.7549 332.943 19.4559 339.658C28.1579 346.373 38.8289 350.034 49.8199 350.075C60.8109 350.116 71.5089 346.535 80.2599 339.885C89.0109 333.234 95.3279 323.886 98.2319 313.286C101.136 302.685 100.467 291.423 96.3279 281.241C92.1889 271.059 84.8099 262.525 75.3329 256.958C77.1999 242.895 87.8339 237.949 126.32 229.987C147.751 225.558 169.901 220.971 188.652 208.932C211.31 194.415 223.444 172.382 224.873 143.388C232.506 139.011 238.848 132.698 243.259 125.086C247.671 117.474 249.996 108.832 250 100.034ZM49.9879 25.0294C54.9319 25.0294 59.7659 26.4957 63.8779 29.2429C67.9889 31.9901 71.1939 35.895 73.0859 40.463C74.9779 45.032 75.4729 50.059 74.5089 54.909C73.5439 59.758 71.1629 64.213 67.6659 67.71C64.1699 71.206 59.7149 73.587 54.8649 74.552C50.0149 75.517 44.9879 75.022 40.4199 73.129C35.8509 71.237 31.9469 68.033 29.1989 63.921C26.4519 59.81 24.9859 54.976 24.9859 50.031C24.9859 43.4 27.6199 37.041 32.3089 32.3522C36.9969 27.6635 43.3569 25.0294 49.9879 25.0294ZM49.9879 325.048C45.0429 325.048 40.2089 323.582 36.0969 320.835C31.9859 318.087 28.7809 314.183 26.8889 309.614C24.9969 305.046 24.5019 300.019 25.4659 295.169C26.4309 290.319 28.8119 285.864 32.3089 282.368C35.8049 278.871 40.2599 276.49 45.1099 275.525C49.9599 274.561 54.9869 275.056 59.5549 276.948C64.1239 278.84 68.0279 282.045 70.7759 286.156C73.5229 290.268 74.9889 295.102 74.9889 300.047C74.9889 306.677 72.3549 313.037 67.6659 317.725C62.9779 322.414 56.6179 325.048 49.9879 325.048ZM199.997 125.036C195.052 125.036 190.218 123.569 186.107 120.822C181.995 118.075 178.791 114.17 176.898 109.602C175.006 105.033 174.511 100.006 175.476 95.157C176.44 90.307 178.822 85.852 182.318 82.355C185.815 78.859 190.269 76.478 195.119 75.513C199.969 74.548 204.996 75.043 209.565 76.936C214.133 78.828 218.038 82.032 220.785 86.144C223.532 90.255 224.998 95.089 224.998 100.034C224.998 106.665 222.364 113.024 217.676 117.713C212.987 122.402 206.628 125.036 199.997 125.036Z"
          fill="currentColor"
        />
      </svg>